<svg xmlns="http://www.w3.org/2000/svg" viewBox="0 0 500 500" width="500" height="500">
  <rect width="500" height="500" fill="#F2EDE4"/>
  <rect x="12" y="12" width="476" height="476" fill="none" stroke="#1a1a18" stroke-width="3.5"/>
  
  <!-- Sun -->
  <circle cx="380" cy="140" r="48" fill="#1a1a18"/>
  <circle cx="380" cy="140" r="32" fill="#F2EDE4"/>
  <!-- Sun rays -->
  <line x1="380" y1="78" x2="380" y2="60" stroke="#1a1a18" stroke-width="6" stroke-linecap="round"/>
  <line x1="380" y1="202" x2="380" y2="220" stroke="#1a1a18" stroke-width="6" stroke-linecap="round"/>
  <line x1="318" y1="140" x2="300" y2="140" stroke="#1a1a18" stroke-width="6" stroke-linecap="round"/>
  <line x1="442" y1="140" x2="460" y2="140" stroke="#1a1a18" stroke-width="6" stroke-linecap="round"/>
  <line x1="336" y1="96" x2="323" y2="83" stroke="#1a1a18" stroke-width="6" stroke-linecap="round"/>
  <line x1="424" y1="184" x2="437" y2="197" stroke="#1a1a18" stroke-width="6" stroke-linecap="round"/>
  <line x1="424" y1="96" x2="437" y2="83" stroke="#1a1a18" stroke-width="6" stroke-linecap="round"/>
  <line x1="336" y1="184" x2="323" y2="197" stroke="#1a1a18" stroke-width="6" stroke-linecap="round"/>
  <!-- Palm trunk -->
  <path d="M 210 380 Q 190 300 175 220 Q 170 190 185 170" stroke="#1a1a18" stroke-width="18" fill="none" stroke-linecap="round"/>
  <!-- Palm leaves -->
  <path d="M 185 170 Q 140 130 100 145" stroke="#1a1a18" stroke-width="10" fill="none" stroke-linecap="round"/>
  <path d="M 185 170 Q 155 120 175 85" stroke="#1a1a18" stroke-width="10" fill="none" stroke-linecap="round"/>
  <path d="M 185 170 Q 220 120 255 130" stroke="#1a1a18" stroke-width="10" fill="none" stroke-linecap="round"/>
  <path d="M 185 170 Q 230 155 265 140" stroke="#1a1a18" stroke-width="10" fill="none" stroke-linecap="round"/>
  <path d="M 185 170 Q 160 165 130 180" stroke="#1a1a18" stroke-width="10" fill="none" stroke-linecap="round"/>
  <!-- Coconuts -->
  <circle cx="195" cy="182" r="10" fill="#1a1a18"/>
  <circle cx="182" cy="190" r="9" fill="#1a1a18"/>
  <!-- Ocean waves -->
  <path d="M 60 330 Q 110 310 160 330 Q 210 350 260 330 Q 310 310 360 330 Q 410 350 460 330" stroke="#1a1a18" stroke-width="8" fill="none" stroke-linecap="round"/>
  <path d="M 60 355 Q 120 338 175 358 Q 230 375 290 355 Q 345 338 400 355 Q 435 365 460 355" stroke="#1a1a18" stroke-width="8" fill="none" stroke-linecap="round"/>
  <!-- Sand -->
  <path d="M 60 385 Q 180 370 260 380 Q 340 390 460 375 L 460 420 L 60 420 Z" fill="#1a1a18"/>

  <text x="250" y="460" font-family="Georgia, serif" font-size="26" font-weight="bold" text-anchor="middle" fill="#1a1a18" letter-spacing="2">BEACH</text>
</svg>