<svg xmlns="http://www.w3.org/2000/svg" viewBox="0 0 500 500" width="500" height="500">
  <rect width="500" height="500" fill="#F2EDE4"/>
  <rect x="12" y="12" width="476" height="476" fill="none" stroke="#1a1a18" stroke-width="3.5"/>
  
  <!-- Chef hat -->
  <ellipse cx="250" cy="230" rx="80" ry="85" fill="#1a1a18"/>
  <rect x="170" y="290" width="160" height="35" rx="5" fill="#1a1a18"/>
  <ellipse cx="250" cy="230" rx="68" ry="72" fill="#F2EDE4"/>
  <!-- Hat band -->
  <rect x="170" y="290" width="160" height="28" rx="4" fill="#1a1a18"/>
  <!-- Puff top of hat -->
  <ellipse cx="250" cy="170" rx="54" ry="50" fill="#F2EDE4"/>
  <ellipse cx="250" cy="165" rx="44" ry="42" fill="#1a1a18" opacity="0.08"/>
  <!-- Frying pan handle -->
  <rect x="116" y="365" width="140" height="22" rx="11" fill="#1a1a18"/>
  <!-- Pan body -->
  <ellipse cx="310" cy="376" rx="78" ry="38" fill="#1a1a18"/>
  <ellipse cx="310" cy="370" rx="66" ry="30" fill="#F2EDE4"/>
  <!-- Food in pan -->
  <ellipse cx="310" cy="368" rx="38" ry="16" fill="#1a1a18"/>
  <!-- Steam -->
  <path d="M 265 330 Q 258 305 268 282 Q 278 260 268 238" stroke="#1a1a18" stroke-width="7" fill="none" stroke-linecap="round"/>
  <path d="M 310 330 Q 303 305 313 282 Q 323 260 313 238" stroke="#1a1a18" stroke-width="7" fill="none" stroke-linecap="round"/>
  <path d="M 355 330 Q 348 305 358 282 Q 368 260 358 238" stroke="#1a1a18" stroke-width="7" fill="none" stroke-linecap="round"/>

  <text x="250" y="460" font-family="Georgia, serif" font-size="26" font-weight="bold" text-anchor="middle" fill="#1a1a18" letter-spacing="2">COOKING CLASS</text>
</svg>