<svg xmlns="http://www.w3.org/2000/svg" xmlns:xlink="http://www.w3.org/1999/xlink" width="500" zoomAndPan="magnify" viewBox="0 0 375 374.999991" height="500" preserveAspectRatio="xMidYMid meet" version="1.0"><defs><g/><clipPath id="90cf8b6cc3"><rect x="0" width="348" y="0" height="171"/></clipPath></defs><g transform="matrix(1, 0, 0, 1, 11, 96)"><g clip-path="url(#90cf8b6cc3)"><g fill="#000000" fill-opacity="1"><g transform="translate(0.919477, 137.54365)"><g><path d="M 78.890625 -100.703125 L 78.890625 -97.96875 L 47.78125 -97.96875 L 47.78125 0.15625 L 36.390625 0.15625 L 36.390625 -97.96875 L 5.296875 -97.96875 L 5.296875 -100.703125 Z M 78.890625 -100.703125 "/></g></g></g><g fill="#000000" fill-opacity="1"><g transform="translate(78.196356, 137.54365)"><g><path d="M 83.859375 0.15625 L 66.546875 -40.40625 L 27.265625 -40.40625 L 9.296875 0.15625 L 5.609375 0.15625 L 51.3125 -102.625 L 52.265625 -102.625 L 96.203125 0.15625 Z M 28.546875 -42.96875 L 65.421875 -42.96875 L 47.296875 -85.296875 Z M 28.546875 -42.96875 "/></g></g></g><g fill="#000000" fill-opacity="1"><g transform="translate(173.269628, 137.54365)"><g><path d="M 78.25 0.15625 L 63.8125 0.15625 L 26.609375 -46.65625 L 19.234375 -46.65625 L 19.234375 0.15625 L 7.703125 0.15625 L 7.703125 -100.703125 C 7.703125 -100.703125 8.898438 -100.703125 11.296875 -100.703125 C 13.703125 -100.703125 16.613281 -100.703125 20.03125 -100.703125 C 23.457031 -100.703125 26.851562 -100.703125 30.21875 -100.703125 C 33.59375 -100.703125 36.238281 -100.703125 38.15625 -100.703125 C 40.1875 -100.703125 42.992188 -100.40625 46.578125 -99.8125 C 50.160156 -99.226562 53.769531 -98.078125 57.40625 -96.359375 C 61.039062 -94.648438 64.113281 -92.113281 66.625 -88.75 C 69.132812 -85.382812 70.390625 -80.972656 70.390625 -75.515625 C 70.390625 -70.285156 69.425781 -65.957031 67.5 -62.53125 C 65.582031 -59.113281 63.070312 -56.363281 59.96875 -54.28125 C 56.863281 -52.195312 53.601562 -50.617188 50.1875 -49.546875 C 46.769531 -48.472656 43.5625 -47.722656 40.5625 -47.296875 Z M 19.234375 -97.96875 L 19.234375 -49.390625 L 27.90625 -49.390625 C 37.3125 -49.390625 44.738281 -51.207031 50.1875 -54.84375 C 55.632812 -58.476562 58.359375 -64.726562 58.359375 -73.59375 C 58.359375 -82.46875 56.035156 -88.75 51.390625 -92.4375 C 46.742188 -96.125 40.300781 -97.96875 32.0625 -97.96875 Z M 19.234375 -97.96875 "/></g></g></g><g fill="#000000" fill-opacity="1"><g transform="translate(250.065536, 137.54365)"><g><path d="M 53.078125 -112.234375 L 73.4375 -137.25 L 62.859375 -137.25 L 50.828125 -112.234375 Z M 83.859375 0.15625 L 66.546875 -40.40625 L 27.265625 -40.40625 L 9.296875 0.15625 L 5.609375 0.15625 L 51.3125 -102.625 L 52.265625 -102.625 L 96.203125 0.15625 Z M 28.546875 -42.96875 L 65.421875 -42.96875 L 47.296875 -85.296875 Z M 28.546875 -42.96875 "/></g></g></g></g></g></svg>